<?xml version="1.0" encoding="utf-8"?>
<!-- Generator: Adobe Illustrator 23.0.3, SVG Export Plug-In . SVG Version: 6.00 Build 0)  -->
<svg version="1.1" id="Layer_1" xmlns="http://www.w3.org/2000/svg" xmlns:xlink="http://www.w3.org/1999/xlink" x="0px" y="0px"
	 viewBox="0 0 227 54" style="enable-background:new 0 0 227 54;" xml:space="preserve">
<style type="text/css">
	.st0{fill:none;stroke:#FFFFFF;stroke-width:1.5;stroke-miterlimit:10;}
	.st1{fill:#FFFFFF;}
</style>
<path class="st0" d="M36.44,30.58c-0.01,7.38-0.89,13.04-1.79,15.93c-0.81,2.62-2.15,4.52-3.27,5.65c-0.08,0.09-1.28,0.98-0.86,1.19
	c0,0,0.92,0.08,1.05,0.07c1.9-0.12,4.16-0.01,9.07-4.48c1.93-1.75,0.87-1.49,1.58-1.5l33.34-0.14c0.79-0.06,1.29-0.35,1.57-0.82
	c0.13-0.22,0.16-0.49,0.2-1.02c0.03-0.31,0.03-0.54,0-1.3c-0.02-0.63-0.03-0.94-0.04-1.09c-0.06-1.13-0.13-24.76,0-28.98
	c0.01-0.23,0.03-0.85-0.37-1.3c-0.32-0.37-0.8-0.47-1.16-0.55c-0.82-0.17-1.5-0.03-1.57-0.03l-35.66,0.09
	c-0.26-0.01-1.2-0.13-1.7,0.41c-0.3,0.32-0.4,0.81-0.41,0.89c-0.09,0.46,0,0.83,0.01,0.89V30.58"/>
<path class="st0" d="M36.26,36.09L2.92,35.95c-0.79-0.06-1.29-0.35-1.57-0.82c-0.13-0.22-0.16-0.49-0.2-1.02
	c-0.03-0.31-0.03-0.54,0-1.3c0.02-0.63,0.03-0.94,0.04-1.09c0.06-1.13,0.13-24.76,0-28.98C1.18,2.52,1.15,1.9,1.55,1.45
	c0.32-0.37,0.8-0.47,1.16-0.55c0.82-0.17,1.5-0.03,1.57-0.03l35.66,0.09c0.26-0.01,1.2-0.13,1.7,0.41c0.3,0.32,0.41,0.81,0.41,0.89
	c0.04,0.6,0.01,1.31,0.01,1.31v8.75"/>
<path class="st0" d="M50.15,42"/>
<path class="st0" d="M49.29,40.81"/>
<path class="st0" d="M47.5,41.8c-0.06-0.12-0.14-0.25-0.13-0.4c0.04-0.59,1.28-0.48,1.76-1.29c0.43-0.72,0-1.53,0.34-2.73
	c0.58-2.03,1.35-1.54,1.44-3.67c0.03-0.6-0.38-0.91-0.82-2.03c-0.61-1.56-0.7-3.2-0.39-4.68c0.15-0.73,0.25-1.02,0.32-2.11
	c0.06-0.92,0.09-1.92-0.79-2.73c-1.17-1.07-1.99-0.66-2.5-1.72c-0.32-0.66-0.74-1.46-0.23-1.84c0.78-0.57,1.99,0.12,3.05-0.5
	c0.56-0.33,0.41-0.54,0.93-1.01c1-0.94,2.46-0.64,3.65-0.23c2.08,0.71,2.3,3.33,2.59,7.18c0.17,2.28,1.6,4.37,3.28,5.93
	c2.1,1.96,2.41,2.38,3.36,3.67c0.89,1.22,1.46,2.67,2.58,3.04c2.53,0.84,4.29-1.8,5.19-2.5c0.37-0.29,0.29,0.07-0.25,1.29
	c-0.73,1.63-1.69,2.72-3.3,4.03c-0.43,0.35-1.04,0.35-1.02,1.06c0.02,0.54,0.06,1.28,0.24,1.88c0.11,0.37-0.15,1.48-0.85,1.53
	c-1.6,0.12-0.48-0.06-3.13,0.05c-1.78,0.07-2.4,0.16-2.87-0.25c-0.4-0.35-0.68-0.97-0.56-1.43c0.14-0.53,0.81-1.09,1.76-1.31
	c0.15-0.03-1.39-0.24-2.62-0.68c-0.58-0.21-1.09-0.44-1.54-0.69c-0.81-0.44-1.59-0.88-2.31-1.71c-0.25-0.29-0.6,1.01-0.64,1.11
	c-0.75,1.99-1.66,2.7-1.66,3.55c0,0.61-0.33,0.94-1.01,1.02c-0.73,0.08-0.43,0.1-3.02,0.34c-0.17,0.02-0.53-0.13-0.62-0.18
	c0,0-0.3-0.15-0.15-0.56c0,0,0,0,0,0c0-0.01,0.23-0.21,0.93-0.79C48.41,42.42,47.79,42.32,47.5,41.8z"/>
<path class="st0" d="M48.51,42.43c1.04-0.55,1.24-0.61,1.44-0.73c0,0,0.41-0.24,0.74-0.57c0.46-0.46,0.29-1.05,0.65-2.82
	c0,0,0.34-1.58,0.87-1.78"/>
<path class="st0" d="M49.96,23.56c1.31,1.01,2.28,1.02,3.39,1.01c0.75-0.01,3.3-1.06,3.3-1.06"/>
<path class="st0" d="M50.06,25.03c1.31,1.01,2.38,1.11,3.49,1.09c0.75-0.01,3.39-1.1,3.39-1.09"/>
<path class="st0" d="M61.39,35.86c-0.38-0.02-1.2,0.03-1.72,0.78c-0.48,0.69-0.19,1.7,0.2,2.68c0.32,0.82,0.69,1.44,1.44,1.77
	c1.18,0.52,2.65,0.2,3.75-0.78"/>
<path class="st0" d="M50.89,16.84c-0.65,0.68-0.28,1.86,0.44,4.16c0.5,1.59,0.91,1.98,1.25,2.19c0.62,0.38,1.47,0.48,2.19,0.16
	c1.21-0.55,1.39-2.04,1.44-2.51c0.02-0.2,0.23-2.17-1.26-3.46C53.74,16.34,51.71,15.98,50.89,16.84z"/>
<path class="st0" d="M65.3,36.3c0.59,0.61,0.55,0.77,0.88,1.54c0.49,1.15,0.45,2.2,0.39,2.71"/>
<path class="st0" d="M53.9,25.06c1.31,0.22,3.82,0.46,6.66-0.52c4.66-1.6,6.91-5.31,7.5-6.35"/>
<path class="st0" d="M32.19,30.81c0.06-0.12,0.14-0.25,0.13-0.4c-0.04-0.59-1.28-0.48-1.76-1.29c-0.43-0.72,0-1.53-0.34-2.73
	c-0.58-2.03-1.35-1.54-1.44-3.67c-0.03-0.6,0.38-0.91,0.82-2.03c0.61-1.56,0.7-3.2,0.39-4.68c-0.15-0.73-0.25-1.02-0.32-2.11
	c-0.06-0.92-0.09-1.92,0.79-2.73c1.17-1.07,1.99-0.66,2.5-1.72c0.32-0.66,0.74-1.46,0.23-1.84c-0.78-0.57-1.99,0.12-3.05-0.5
	c-0.56-0.33-0.41-0.54-0.93-1.01c-1-0.94-2.46-0.64-3.65-0.23c-2.08,0.71-2.3,3.33-2.59,7.18c-0.17,2.28-1.6,4.37-3.28,5.93
	c-2.1,1.96-2.41,2.38-3.36,3.67c-0.89,1.22-1.46,2.67-2.58,3.04c-2.53,0.84-4.29-1.8-5.19-2.5c-0.37-0.29-0.29,0.07,0.25,1.29
	c0.73,1.63,1.69,2.72,3.3,4.03c0.43,0.35,1.04,0.35,1.02,1.06c-0.02,0.54-0.06,1.28-0.24,1.88c-0.11,0.37,0.15,1.48,0.85,1.53
	c1.6,0.12,0.48-0.06,3.13,0.05c1.78,0.07,2.4,0.16,2.87-0.25c0.4-0.35,0.68-0.97,0.56-1.43c-0.14-0.53-0.81-1.09-1.76-1.31
	c-0.15-0.03,1.39-0.24,2.62-0.68c0.58-0.21,1.09-0.44,1.54-0.69c0.81-0.44,1.59-0.88,2.31-1.71c0.25-0.29,0.6,1.01,0.64,1.11
	c0.75,1.99,1.66,2.7,1.66,3.55c0,0.61,0.33,0.94,1.01,1.02c0.73,0.08,0.43,0.1,3.02,0.34c0.17,0.02,0.53-0.13,0.62-0.18
	c0,0,0.3-0.15,0.15-0.56c0,0,0,0,0,0c0-0.01-0.23-0.21-0.93-0.79C31.28,31.43,31.9,31.34,32.19,30.81z"/>
<path class="st0" d="M31.18,31.45c-1.04-0.55-1.24-0.61-1.44-0.73c0,0-0.41-0.24-0.74-0.57c-0.46-0.46-0.29-1.05-0.65-2.82
	c0,0-0.34-1.58-0.87-1.78"/>
<path class="st0" d="M29.73,12.58c-1.31,1.01-2.28,1.02-3.39,1.01c-0.75-0.01-3.3-1.06-3.3-1.06"/>
<path class="st0" d="M29.64,14.04c-1.31,1.01-2.38,1.11-3.49,1.09c-0.75-0.01-3.39-1.1-3.39-1.09"/>
<path class="st0" d="M18.3,24.88c0.38-0.02,1.2,0.03,1.72,0.78c0.48,0.69,0.19,1.7-0.2,2.68c-0.32,0.82-0.69,1.44-1.44,1.77
	c-1.18,0.52-2.65,0.2-3.75-0.78"/>
<path class="st0" d="M28.81,5.86c0.65,0.68,0.28,1.86-0.44,4.16c-0.5,1.59-0.91,1.98-1.25,2.19c-0.62,0.38-1.47,0.48-2.19,0.16
	c-1.21-0.55-1.39-2.04-1.44-2.51c-0.02-0.2-0.23-2.17,1.26-3.46C25.95,5.36,27.99,5,28.81,5.86z"/>
<path class="st0" d="M14.39,25.31c-0.59,0.61-0.55,0.77-0.88,1.54c-0.49,1.15-0.45,2.2-0.39,2.71"/>
<path class="st0" d="M25.79,14.08c-1.31,0.22-3.82,0.46-6.66-0.52c-4.66-1.6-6.91-5.31-7.5-6.35"/>
<g>
	<path class="st1" d="M101.75,14.49c1.43,1.1,2.15,2.73,2.15,4.9c0,2.32-0.75,4.04-2.24,5.16s-3.48,1.69-5.96,1.69h-2.67v7.78H90.1
		V12.84h5.56C98.28,12.84,100.31,13.39,101.75,14.49z M99.46,22.95c0.89-0.66,1.34-1.83,1.34-3.54c0-1.52-0.45-2.61-1.34-3.29
		s-2.17-1.01-3.83-1.01h-2.61v8.82h2.55C97.27,23.94,98.57,23.61,99.46,22.95z"/>
	<path class="st1" d="M117.39,34.02l-1.6-5.32h-8.02l-1.6,5.32h-2.95l6.79-21.17h3.69l6.76,21.17H117.39z M108.48,26.33h6.61
		l-3.29-11.06L108.48,26.33z"/>
	<path class="st1" d="M145.26,12.84l-4.3,21.17h-3.75l-3.9-17.73l-3.93,17.73h-3.66l-4.3-21.17h2.86l3.41,18.62l4.09-18.62h3.1
		l4.18,18.62l3.53-18.62H145.26z"/>
	<path class="st1" d="M161.61,12.84l-0.31,2.49h-5.87v18.69h-2.92V15.33h-6.02v-2.49H161.61z"/>
	<path class="st1" d="M176.17,13.75c1.34,0.85,2.39,2.09,3.13,3.73s1.12,3.63,1.12,5.96c0,2.29-0.37,4.26-1.12,5.9
		c-0.75,1.64-1.79,2.89-3.13,3.75s-2.9,1.29-4.69,1.29s-3.35-0.42-4.69-1.26c-1.34-0.84-2.39-2.08-3.13-3.72
		c-0.75-1.64-1.12-3.62-1.12-5.93c0-2.27,0.37-4.24,1.12-5.9c0.75-1.66,1.8-2.92,3.15-3.79c1.35-0.87,2.91-1.31,4.67-1.31
		C173.26,12.47,174.82,12.9,176.17,13.75z M167.18,16.96c-1.02,1.39-1.54,3.56-1.54,6.52c0,2.93,0.52,5.08,1.55,6.45
		c1.03,1.37,2.46,2.06,4.29,2.06c3.89,0,5.84-2.85,5.84-8.54c0-5.72-1.95-8.57-5.84-8.57C169.64,14.87,168.2,15.57,167.18,16.96z"/>
	<path class="st1" d="M196.83,14.49c1.43,1.1,2.15,2.73,2.15,4.9c0,2.32-0.75,4.04-2.24,5.16c-1.5,1.13-3.48,1.69-5.96,1.69h-2.67
		v7.78h-2.92V12.84h5.56C193.37,12.84,195.4,13.39,196.83,14.49z M194.54,22.95c0.89-0.66,1.34-1.83,1.34-3.54
		c0-1.52-0.45-2.61-1.34-3.29s-2.17-1.01-3.83-1.01h-2.61v8.82h2.55C192.36,23.94,193.65,23.61,194.54,22.95z"/>
	<path class="st1" d="M205.96,12.84v21.17h-2.92V12.84H205.96z"/>
	<path class="st1" d="M223.39,34.02l-1.6-5.32h-8.02l-1.6,5.32h-2.95l6.79-21.17h3.69l6.76,21.17H223.39z M214.47,26.33h6.61
		l-3.29-11.06L214.47,26.33z"/>
</g>
</svg>
