<?xml version="1.0" encoding="utf-8"?>
<!-- Generator: Adobe Illustrator 23.0.3, SVG Export Plug-In . SVG Version: 6.00 Build 0)  -->
<svg version="1.1" id="Layer_1" xmlns="http://www.w3.org/2000/svg" xmlns:xlink="http://www.w3.org/1999/xlink" x="0px" y="0px"
	 viewBox="0 0 128 128" style="enable-background:new 0 0 128 128;" xml:space="preserve">
<style type="text/css">
	.st0{fill:none;stroke:#FFFFFF;stroke-miterlimit:10;}
</style>
<path class="st0" d="M58.55,73.4c-0.02,10.18-1.23,17.99-2.47,21.98c-1.12,3.61-2.97,6.24-4.51,7.8c-0.12,0.12-1.77,1.35-1.18,1.64
	c0,0,1.27,0.11,1.44,0.1c2.62-0.16,5.74-0.02,12.52-6.18c2.66-2.42,1.2-2.05,2.17-2.06l46-0.19c1.1-0.08,1.78-0.48,2.16-1.13
	c0.18-0.31,0.21-0.67,0.28-1.41c0.04-0.43,0.03-0.74,0-1.79c-0.03-0.87-0.04-1.3-0.05-1.51c-0.08-1.56-0.18-34.16,0-39.98
	c0.01-0.31,0.04-1.17-0.51-1.79c-0.45-0.5-1.1-0.65-1.6-0.75c-1.14-0.24-2.07-0.03-2.16-0.04l-49.2,0.13
	c-0.36-0.02-1.66-0.18-2.35,0.56c-0.41,0.44-0.55,1.12-0.57,1.22c-0.12,0.63,0,1.14,0.02,1.23V73.4"/>
<path class="st0" d="M58.3,81l-46-0.19c-1.1-0.08-1.78-0.48-2.16-1.13c-0.18-0.31-0.21-0.67-0.28-1.41c-0.04-0.43-0.03-0.74,0-1.79
	c0.03-0.87,0.04-1.3,0.05-1.51c0.08-1.56,0.18-34.16,0-39.98c-0.01-0.31-0.04-1.17,0.51-1.79c0.45-0.5,1.1-0.65,1.6-0.75
	c1.14-0.24,2.07-0.03,2.16-0.04l49.2,0.13c0.36-0.02,1.66-0.18,2.35,0.56c0.41,0.44,0.56,1.11,0.57,1.22
	c0.05,0.83,0.02,1.8,0.02,1.8V48.2"/>
<path class="st0" d="M77.46,89.15"/>
<path class="st0" d="M76.28,87.51"/>
<path class="st0" d="M73.81,88.87c-0.09-0.16-0.19-0.34-0.18-0.56c0.06-0.81,1.76-0.66,2.43-1.78c0.59-0.99,0-2.11,0.47-3.77
	c0.79-2.81,1.86-2.13,1.99-5.06c0.04-0.83-0.53-1.25-1.13-2.8c-0.83-2.16-0.97-4.42-0.54-6.46c0.21-1.01,0.35-1.41,0.45-2.91
	c0.09-1.27,0.13-2.65-1.09-3.77c-1.61-1.48-2.74-0.92-3.45-2.37c-0.45-0.92-1.03-2.02-0.32-2.54c1.07-0.79,2.75,0.17,4.21-0.69
	c0.77-0.45,0.57-0.74,1.28-1.4c1.39-1.29,3.4-0.88,5.04-0.32c2.87,0.98,3.17,4.59,3.58,9.91c0.24,3.14,2.21,6.03,4.52,8.19
	c2.9,2.71,3.33,3.29,4.63,5.06c1.23,1.68,2.01,3.69,3.55,4.2c3.49,1.16,5.92-2.48,7.16-3.45c0.52-0.41,0.4,0.1-0.35,1.78
	c-1,2.25-2.33,3.75-4.55,5.56c-0.59,0.48-1.44,0.49-1.4,1.46c0.03,0.74,0.08,1.76,0.33,2.59c0.15,0.51-0.21,2.04-1.18,2.11
	c-2.2,0.16-0.66-0.08-4.32,0.07c-2.45,0.1-3.31,0.22-3.96-0.34c-0.55-0.48-0.93-1.33-0.77-1.97c0.19-0.74,1.12-1.5,2.42-1.81
	c0.2-0.05-1.92-0.33-3.62-0.94c-0.79-0.28-1.5-0.61-2.12-0.95c-1.11-0.61-2.19-1.22-3.19-2.36c-0.34-0.4-0.83,1.39-0.89,1.53
	c-1.04,2.75-2.29,3.73-2.29,4.9c0,0.84-0.46,1.3-1.39,1.4c-1.01,0.12-0.6,0.14-4.16,0.47c-0.24,0.02-0.74-0.19-0.86-0.25
	c0,0-0.41-0.21-0.21-0.77c0,0,0,0,0,0c0-0.01,0.32-0.28,1.28-1.08C75.06,89.73,74.21,89.59,73.81,88.87z"/>
<path class="st0" d="M75.2,89.75c1.43-0.76,1.71-0.84,1.99-1.01c0,0,0.57-0.33,1.03-0.79c0.63-0.63,0.4-1.45,0.9-3.89
	c0,0,0.47-2.18,1.19-2.46"/>
<path class="st0" d="M77.2,63.71c1.81,1.39,3.14,1.41,4.67,1.39c1.04-0.01,4.55-1.46,4.55-1.46"/>
<path class="st0" d="M77.33,65.74c1.81,1.39,3.29,1.53,4.82,1.51c1.04-0.01,4.68-1.51,4.67-1.51"/>
<path class="st0" d="M92.97,80.69c-0.52-0.03-1.65,0.04-2.37,1.08c-0.67,0.96-0.26,2.34,0.27,3.7c0.44,1.13,0.95,1.99,1.99,2.44
	c1.62,0.71,3.65,0.27,5.17-1.08"/>
<path class="st0" d="M78.47,54.44c-0.89,0.94-0.39,2.56,0.61,5.74c0.68,2.19,1.25,2.73,1.72,3.02c0.85,0.52,2.03,0.66,3.02,0.22
	c1.67-0.76,1.91-2.81,1.99-3.47c0.03-0.27,0.32-3-1.74-4.77C82.42,53.75,79.6,53.25,78.47,54.44z"/>
<path class="st0" d="M98.36,81.29c0.82,0.84,0.76,1.07,1.21,2.13c0.68,1.59,0.62,3.03,0.54,3.74"/>
<path class="st0" d="M82.63,65.79c1.81,0.31,5.26,0.63,9.19-0.72c6.43-2.21,9.53-7.32,10.34-8.76"/>
<path class="st0" d="M52.68,73.72c0.09-0.16,0.19-0.34,0.18-0.56c-0.06-0.81-1.76-0.66-2.43-1.78c-0.59-0.99,0-2.11-0.47-3.77
	c-0.79-2.81-1.86-2.13-1.99-5.06c-0.04-0.83,0.53-1.25,1.13-2.8c0.83-2.16,0.97-4.42,0.54-6.46c-0.21-1.01-0.35-1.41-0.45-2.91
	c-0.09-1.27-0.13-2.65,1.09-3.77c1.61-1.48,2.74-0.92,3.45-2.37c0.45-0.92,1.03-2.02,0.32-2.54c-1.07-0.79-2.75,0.17-4.21-0.69
	c-0.77-0.45-0.57-0.74-1.28-1.4c-1.39-1.29-3.4-0.88-5.04-0.32c-2.87,0.98-3.17,4.59-3.58,9.91c-0.24,3.14-2.21,6.03-4.52,8.19
	c-2.9,2.71-3.33,3.29-4.63,5.06c-1.23,1.68-2.01,3.69-3.55,4.2c-3.49,1.16-5.92-2.48-7.16-3.45c-0.52-0.41-0.4,0.1,0.35,1.78
	c1,2.25,2.33,3.75,4.55,5.56c0.59,0.48,1.44,0.49,1.4,1.46c-0.03,0.74-0.08,1.76-0.33,2.59c-0.15,0.51,0.21,2.04,1.18,2.11
	c2.2,0.16,0.66-0.08,4.32,0.07c2.45,0.1,3.31,0.22,3.96-0.34c0.55-0.48,0.93-1.33,0.77-1.97c-0.19-0.74-1.12-1.5-2.42-1.81
	c-0.2-0.05,1.92-0.33,3.62-0.94c0.79-0.28,1.5-0.61,2.12-0.95c1.11-0.61,2.19-1.22,3.19-2.36c0.34-0.4,0.83,1.39,0.89,1.53
	c1.04,2.75,2.29,3.73,2.29,4.9c0,0.84,0.46,1.3,1.39,1.4c1.01,0.12,0.6,0.14,4.16,0.47c0.24,0.02,0.74-0.19,0.86-0.25
	c0,0,0.41-0.21,0.21-0.77c0,0,0,0,0,0c0-0.01-0.32-0.28-1.28-1.08C51.43,74.57,52.28,74.44,52.68,73.72z"/>
<path class="st0" d="M51.29,74.59c-1.43-0.76-1.71-0.84-1.99-1.01c0,0-0.57-0.33-1.03-0.79c-0.63-0.63-0.4-1.45-0.9-3.89
	c0,0-0.47-2.18-1.19-2.46"/>
<path class="st0" d="M49.29,48.56c-1.81,1.39-3.14,1.41-4.67,1.39c-1.04-0.01-4.55-1.46-4.55-1.46"/>
<path class="st0" d="M49.16,50.58c-1.81,1.39-3.29,1.53-4.82,1.51c-1.04-0.01-4.68-1.51-4.67-1.51"/>
<path class="st0" d="M33.52,65.53c0.52-0.03,1.65,0.04,2.37,1.08c0.67,0.96,0.26,2.34-0.27,3.7c-0.44,1.13-0.95,1.99-1.99,2.44
	c-1.62,0.71-3.65,0.27-5.17-1.08"/>
<path class="st0" d="M48.01,39.29c0.89,0.94,0.39,2.56-0.61,5.74c-0.68,2.19-1.25,2.73-1.72,3.02c-0.85,0.52-2.03,0.66-3.02,0.22
	c-1.67-0.76-1.91-2.81-1.99-3.47c-0.03-0.27-0.32-3,1.74-4.77C44.07,38.6,46.88,38.1,48.01,39.29z"/>
<path class="st0" d="M28.12,66.13c-0.82,0.84-0.76,1.07-1.21,2.13c-0.68,1.59-0.62,3.03-0.54,3.74"/>
<path class="st0" d="M43.86,50.63c-1.81,0.31-5.26,0.63-9.19-0.72c-6.43-2.21-9.53-7.32-10.34-8.76"/>
</svg>
