<?xml version="1.0" standalone="no"?>
<!DOCTYPE svg PUBLIC "-//W3C//DTD SVG 20010904//EN"
 "http://www.w3.org/TR/2001/REC-SVG-20010904/DTD/svg10.dtd">
<svg version="1.0" xmlns="http://www.w3.org/2000/svg"
 width="259.000000pt" height="259.000000pt" viewBox="0 0 259.000000 259.000000"
 preserveAspectRatio="xMidYMid meet">
<metadata>
Created by potrace 1.11, written by Peter Selinger 2001-2013
</metadata>
<g transform="translate(0.000000,259.000000) scale(0.100000,-0.100000)"
fill="#000000" stroke="none">
<path d="M0 1290 l0 -1280 1290 0 1290 0 0 1280 0 1280 -1290 0 -1290 0 0
-1280z m1388 1022 c8 -11 12 -61 12 -164 l0 -148 500 0 c487 0 501 -1 520 -20
19 -19 20 -33 20 -507 0 -269 -4 -493 -8 -500 -19 -30 -70 -33 -549 -33 l-485
0 -59 -53 c-32 -30 -81 -66 -109 -81 -73 -40 -190 -54 -190 -24 0 6 16 28 35
49 19 21 46 60 59 87 26 51 60 201 69 305 l6 57 -500 0 c-480 0 -500 1 -518
19 -19 19 -20 37 -18 508 2 268 6 494 11 501 4 7 18 17 30 22 12 5 268 7 591
3 502 -5 571 -7 583 -21z m-1016 -1762 c47 -13 68 -43 68 -95 0 -59 -33 -88
-108 -95 l-57 -5 -3 -62 c-3 -55 -6 -63 -22 -63 -19 0 -20 8 -20 165 l0 165
53 0 c28 0 69 -5 89 -10z m273 -142 c26 -84 50 -159 53 -165 2 -8 -5 -13 -21
-13 -21 0 -26 7 -36 45 l-12 46 -61 -3 -61 -3 -15 -42 c-11 -34 -18 -43 -37
-43 -23 0 -22 1 26 153 27 83 52 158 54 165 2 6 17 12 33 12 28 0 29 -3 77
-152z m136 17 c13 -74 26 -135 29 -135 3 0 19 61 35 135 28 133 29 136 54 133
24 -3 27 -10 55 -141 19 -86 32 -132 37 -120 3 10 16 73 29 141 19 105 25 122
41 122 24 0 25 2 -13 -177 l-32 -153 -27 0 c-31 0 -32 1 -64 155 -10 44 -21
86 -24 93 -4 7 -20 -46 -36 -118 -28 -130 -28 -130 -56 -130 -33 0 -27 -15
-68 188 l-28 142 22 0 c21 0 24 -9 46 -135z m559 120 c0 -11 -12 -15 -45 -15
l-45 0 0 -150 0 -150 -25 0 -25 0 0 150 0 150 -45 0 c-33 0 -45 4 -45 15 0 12
19 15 115 15 96 0 115 -3 115 -15z m234 -6 c41 -32 59 -76 59 -144 0 -108 -48
-165 -139 -165 -95 0 -140 63 -132 186 6 99 49 144 139 144 32 0 55 -6 73 -21z
m278 11 c47 -13 68 -43 68 -95 0 -59 -33 -88 -108 -95 l-57 -5 -3 -62 c-3 -55
-6 -63 -22 -63 -19 0 -20 8 -20 165 l0 165 53 0 c28 0 69 -5 89 -10z m178
-155 c0 -158 -1 -165 -20 -165 -19 0 -20 7 -20 165 0 158 1 165 20 165 19 0
20 -7 20 -165z m265 13 c26 -84 50 -159 53 -165 2 -8 -5 -13 -21 -13 -21 0
-26 7 -36 45 l-12 46 -61 -3 -61 -3 -15 -42 c-11 -34 -18 -43 -37 -43 -23 0
-22 1 26 153 27 83 52 158 54 165 2 6 17 12 33 12 28 0 29 -3 77 -152z"/>
<path d="M234 2312 c-10 -2 -22 -7 -26 -10 -4 -4 -8 -227 -9 -496 -1 -404 1
-490 12 -497 8 -5 236 -9 507 -9 l492 0 0 330 c0 389 -5 370 105 370 l65 0 0
143 c0 78 -4 148 -8 154 -6 10 -136 13 -563 15 -306 2 -564 1 -575 0z m793
-142 c23 -21 44 -30 68 -30 68 0 62 -66 -10 -109 -48 -28 -55 -52 -42 -145 10
-71 9 -82 -13 -147 l-23 -70 22 -45 c12 -25 24 -65 28 -89 4 -32 11 -46 29
-54 20 -9 23 -17 21 -58 -2 -45 -4 -48 -31 -51 -17 -2 -49 -1 -73 3 -43 6 -44
7 -80 86 -32 71 -38 78 -52 65 -23 -20 -97 -56 -116 -56 -18 0 -20 -11 -4 -27
17 -17 2 -62 -24 -72 -29 -11 -178 -2 -195 12 -8 6 -12 27 -11 53 3 39 -1 46
-48 91 -54 50 -99 131 -83 147 5 5 25 -5 48 -26 75 -68 114 -63 171 20 21 31
60 77 86 102 47 46 105 121 105 138 0 5 -28 17 -62 26 -35 10 -84 31 -111 48
-78 50 -165 158 -127 158 6 0 10 -4 10 -9 0 -18 93 -112 134 -135 59 -35 156
-62 166 -46 4 6 10 45 14 86 3 41 13 88 21 104 34 65 124 80 182 30z"/>
<path d="M913 2170 c-13 -5 -32 -24 -43 -42 -40 -63 -1 -153 57 -132 23 7 32
21 52 81 19 59 21 76 11 88 -14 17 -43 18 -77 5z"/>
<path d="M999 2067 c-21 -62 -29 -74 -59 -89 l-35 -18 39 0 c32 0 45 7 80 43
22 24 53 51 69 61 38 23 37 56 -4 56 -17 0 -38 4 -48 10 -16 8 -21 1 -42 -63z"/>
<path d="M840 2000 c0 -5 10 -15 23 -21 22 -12 22 -12 3 10 -21 23 -26 26 -26
11z"/>
<path d="M835 1950 c-4 -6 7 -10 27 -10 25 0 29 3 18 10 -19 13 -37 13 -45 0z"/>
<path d="M948 1943 c-21 -2 -38 -8 -38 -14 0 -14 64 -11 86 6 20 15 22 15 -48
8z"/>
<path d="M809 1879 c-11 -23 -54 -77 -94 -119 -65 -68 -94 -106 -147 -189 -10
-16 -17 -53 -20 -101 l-3 -75 91 -3 c78 -2 93 0 98 14 11 28 -13 44 -63 43
-26 -1 -57 4 -69 10 -26 14 -30 37 -4 26 34 -16 82 -17 99 -4 42 35 50 112 12
124 -10 4 -19 11 -19 16 0 15 18 10 46 -14 26 -23 27 -26 16 -68 -6 -24 -9
-45 -7 -48 7 -7 87 32 115 56 15 12 31 19 36 15 6 -4 25 -42 44 -84 l35 -77
48 -6 c27 -4 51 -5 54 -2 3 3 -14 17 -36 32 -23 14 -46 36 -50 48 -16 40 -33
128 -27 134 8 9 36 -62 36 -92 0 -31 41 -75 70 -75 11 0 20 5 20 10 0 6 -4 10
-10 10 -24 0 -50 41 -50 79 0 23 -9 56 -21 76 -23 39 -22 71 6 145 12 33 15
59 10 101 l-7 56 -41 -14 c-41 -14 -67 -11 -132 14 -9 3 -22 -11 -36 -38z"/>
<path d="M437 1599 c10 -17 34 -44 53 -60 l35 -29 7 22 c11 40 9 48 -16 48
-13 0 -40 11 -60 25 l-37 25 18 -31z"/>
<path d="M1251 1971 c-11 -7 -13 -51 -12 -232 4 -534 -35 -794 -139 -912 l-32
-37 39 0 c54 0 146 48 219 114 l59 53 505 8 c316 4 510 11 518 17 16 13 18
948 2 979 -10 18 -27 19 -578 19 -312 0 -573 -4 -581 -9z m514 -115 c37 -24
54 -65 62 -152 l8 -79 43 2 c59 3 153 56 213 120 27 30 49 59 49 64 0 5 5 9
10 9 23 0 6 -33 -46 -89 -61 -66 -152 -119 -222 -128 l-41 -6 19 -36 c10 -20
42 -58 70 -86 29 -27 73 -79 98 -115 55 -77 58 -80 99 -80 24 0 44 10 72 35
21 19 44 35 50 35 36 0 -22 -107 -88 -160 -38 -31 -40 -35 -35 -75 9 -64 -8
-75 -113 -75 -66 0 -91 4 -105 17 -19 17 -24 53 -9 69 6 5 -20 23 -66 46 l-75
36 -34 -74 c-36 -77 -36 -77 -115 -87 -49 -7 -62 4 -65 56 -3 39 0 46 22 55
18 9 24 19 24 45 0 18 12 57 26 86 l27 53 -22 62 c-18 52 -21 79 -19 171 l3
109 -39 22 c-77 44 -83 114 -9 114 25 0 45 9 71 31 30 27 41 30 74 26 21 -3
50 -12 63 -21z"/>
<path d="M1654 1836 c-8 -20 24 -127 43 -148 17 -19 49 -23 70 -10 40 25 34
126 -10 157 -28 19 -96 20 -103 1z"/>
<path d="M1580 1803 c-57 -6 -61 -9 -49 -35 5 -13 27 -32 47 -43 20 -11 42
-31 48 -44 17 -33 33 -41 84 -40 44 1 44 1 12 9 -41 10 -56 30 -77 103 -9 31
-19 56 -23 55 -4 0 -23 -3 -42 -5z"/>
<path d="M1796 1675 c-3 -8 -1 -15 4 -15 6 0 10 7 10 15 0 8 -2 15 -4 15 -2 0
-6 -7 -10 -15z"/>
<path d="M1775 1630 c-18 -8 -17 -9 8 -9 15 -1 27 4 27 9 0 12 -8 12 -35 0z"/>
<path d="M1640 1620 c0 -13 56 -32 84 -28 40 5 17 24 -36 30 -27 3 -48 2 -48
-2z"/>
<path d="M1625 1546 c-8 -52 0 -107 21 -148 19 -36 18 -61 -5 -106 -10 -20
-21 -57 -24 -82 -4 -32 -13 -51 -32 -66 -35 -28 -16 -41 25 -17 21 12 32 27
36 53 9 57 25 100 36 100 6 0 8 -11 4 -27 -4 -16 -11 -48 -16 -73 -10 -46 -14
-51 -72 -85 l-33 -19 34 -4 c61 -6 74 3 111 84 19 42 38 78 42 80 4 3 24 -6
45 -20 21 -14 55 -32 77 -41 l39 -16 -7 23 c-18 64 -18 79 -1 98 18 19 55 28
55 12 0 -4 -10 -12 -22 -17 -18 -8 -23 -18 -22 -43 4 -71 56 -107 115 -78 37
19 50 13 26 -11 -12 -12 -35 -18 -72 -18 -65 -1 -82 -13 -65 -44 10 -20 17
-22 91 -18 44 3 84 8 89 13 4 5 5 43 1 85 -8 73 -10 78 -78 170 -39 51 -92
114 -118 139 -25 25 -56 62 -67 84 -18 36 -22 38 -51 30 -42 -10 -107 -11
-134 -1 -20 7 -22 4 -28 -37z"/>
<path d="M2200 1285 c-7 -8 -30 -20 -51 -26 -35 -11 -38 -15 -32 -38 3 -14 7
-28 9 -30 5 -6 52 38 76 72 21 30 20 48 -2 22z"/>
<path d="M277 523 c-4 -3 -7 -35 -7 -70 l0 -63 43 0 c61 0 97 44 77 94 -12 32
-93 60 -113 39z"/>
<path d="M541 438 c-11 -40 -21 -76 -21 -80 0 -5 22 -8 49 -8 l49 0 -23 76
c-13 42 -25 78 -28 80 -2 2 -14 -28 -26 -68z"/>
<path d="M1437 501 c-68 -81 -28 -241 60 -241 67 0 105 78 88 181 -15 86 -97
120 -148 60z"/>
<path d="M1757 523 c-4 -3 -7 -35 -7 -70 l0 -63 43 0 c61 0 97 44 77 94 -12
32 -93 60 -113 39z"/>
<path d="M2191 438 c-11 -40 -21 -76 -21 -80 0 -5 22 -8 49 -8 l49 0 -23 76
c-13 42 -25 78 -28 80 -2 2 -14 -28 -26 -68z"/>
</g>
</svg>
